<svg xmlns="http://www.w3.org/2000/svg" xmlns:xlink="http://www.w3.org/1999/xlink" width="500" zoomAndPan="magnify" viewBox="0 0 375 374.999991" height="500" preserveAspectRatio="xMidYMid meet" version="1.0"><defs><g/><clipPath id="2dafd53a8c"><path d="M 188 130 L 209 130 L 209 226 L 188 226 Z M 188 130 " clip-rule="nonzero"/></clipPath><clipPath id="f245a33f3d"><path d="M 188.324219 224.242188 L 199.027344 130.347656 L 208.714844 131.453125 L 198.011719 225.34375 Z M 188.324219 224.242188 " clip-rule="nonzero"/></clipPath><clipPath id="508952c73f"><path d="M 188.492188 224.109375 L 199.15625 130.5625 L 208.570312 131.636719 L 197.90625 225.179688 Z M 188.492188 224.109375 " clip-rule="nonzero"/></clipPath><clipPath id="65f6d8f386"><path d="M 187.496094 224.902344 L 198.367188 129.519531 L 209.546875 130.792969 L 198.671875 226.175781 Z M 187.496094 224.902344 " clip-rule="nonzero"/></clipPath><clipPath id="23152a2be3"><path d="M 187 129 L 210 129 L 210 227 L 187 227 Z M 187 129 " clip-rule="nonzero"/></clipPath><clipPath id="2d7d42bd51"><path d="M 187.496094 224.902344 L 198.367188 129.519531 L 209.546875 130.792969 L 198.671875 226.175781 Z M 187.496094 224.902344 " clip-rule="nonzero"/></clipPath><clipPath id="f91155b87c"><path d="M 187.496094 224.902344 L 198.367188 129.53125 L 210.289062 130.886719 L 199.417969 226.261719 Z M 187.496094 224.902344 " clip-rule="nonzero"/></clipPath><clipPath id="b622a3f5f8"><path d="M 187.496094 224.902344 L 198.363281 129.578125 L 209.5625 130.855469 L 198.695312 226.175781 Z M 187.496094 224.902344 " clip-rule="nonzero"/></clipPath></defs><g fill="#ffffff" fill-opacity="1"><g transform="translate(86.048244, 204.778376)"><g><path d="M 48.671875 0 L 38.078125 0 L 41.25 -25.75 L 16.59375 -25.75 L 13.421875 0 L 2.84375 0 L 10.0625 -58.640625 L 20.640625 -58.640625 L 17.484375 -33.21875 L 42.171875 -33.21875 L 45.34375 -58.640625 L 55.921875 -58.640625 Z M 48.671875 0 "/></g></g></g><g fill="#ffffff" fill-opacity="1"><g transform="translate(145.985658, 204.778376)"><g><path d="M 15.046875 11.515625 C 14.335938 12.890625 13.253906 13.578125 11.796875 13.578125 L 4.375 13.578125 L 13.625 -3.15625 L 3.125 -41.609375 L 11.515625 -41.609375 C 12.242188 -41.609375 12.789062 -41.425781 13.15625 -41.0625 C 13.519531 -40.695312 13.769531 -40.257812 13.90625 -39.75 L 19.015625 -18.171875 C 19.179688 -17.460938 19.3125 -16.769531 19.40625 -16.09375 C 19.5 -15.425781 19.570312 -14.738281 19.625 -14.03125 C 19.925781 -14.738281 20.226562 -15.4375 20.53125 -16.125 C 20.84375 -16.8125 21.164062 -17.503906 21.5 -18.203125 L 31.75 -39.78125 C 32.019531 -40.320312 32.410156 -40.757812 32.921875 -41.09375 C 33.441406 -41.4375 33.972656 -41.609375 34.515625 -41.609375 L 42.546875 -41.609375 Z M 15.046875 11.515625 "/></g></g></g><g fill="#ffffff" fill-opacity="1"><g transform="translate(189.783115, 204.778376)"><g/></g></g><g fill="#ffffff" fill-opacity="1"><g transform="translate(208.924548, 204.778376)"><g><path d="M 33.453125 -23.4375 C 33.703125 -22.738281 33.921875 -22.023438 34.109375 -21.296875 C 34.296875 -20.566406 34.484375 -19.820312 34.671875 -19.0625 C 34.992188 -19.820312 35.34375 -20.566406 35.71875 -21.296875 C 36.101562 -22.023438 36.515625 -22.738281 36.953125 -23.4375 L 57.296875 -56.9375 C 57.546875 -57.34375 57.796875 -57.660156 58.046875 -57.890625 C 58.304688 -58.117188 58.578125 -58.285156 58.859375 -58.390625 C 59.148438 -58.503906 59.46875 -58.570312 59.8125 -58.59375 C 60.164062 -58.625 60.570312 -58.640625 61.03125 -58.640625 L 69.03125 -58.640625 L 61.8125 0 L 52.5625 0 L 57.265625 -38.203125 C 57.347656 -38.898438 57.46875 -39.664062 57.625 -40.5 C 57.789062 -41.34375 57.96875 -42.195312 58.15625 -43.0625 L 38 -9.578125 C 37.539062 -8.816406 36.960938 -8.242188 36.265625 -7.859375 C 35.578125 -7.484375 34.832031 -7.296875 34.03125 -7.296875 L 32.5625 -7.296875 C 31.75 -7.296875 31.039062 -7.484375 30.4375 -7.859375 C 29.832031 -8.242188 29.394531 -8.816406 29.125 -9.578125 L 17.03125 -42.953125 C 17.007812 -42.109375 16.976562 -41.296875 16.9375 -40.515625 C 16.894531 -39.734375 16.832031 -39.015625 16.75 -38.359375 L 12.125 0 L 2.84375 0 L 10.0625 -58.640625 L 17.96875 -58.640625 C 18.425781 -58.640625 18.828125 -58.625 19.171875 -58.59375 C 19.523438 -58.570312 19.835938 -58.503906 20.109375 -58.390625 C 20.378906 -58.285156 20.609375 -58.117188 20.796875 -57.890625 C 20.992188 -57.660156 21.171875 -57.34375 21.328125 -56.9375 Z M 33.453125 -23.4375 "/></g></g></g><g clip-path="url(#2dafd53a8c)"><g clip-path="url(#f245a33f3d)"><g clip-path="url(#508952c73f)"><g clip-path="url(#65f6d8f386)"><path fill="#939598" d="M 187.5 224.851562 L 198.355469 129.625 L 209.558594 130.902344 L 198.703125 226.128906 Z M 187.5 224.851562 " fill-opacity="1" fill-rule="nonzero"/><path fill="#ffffff" d="M 187.5 224.851562 L 198.355469 129.625 L 209.558594 130.902344 L 198.703125 226.128906 Z M 187.5 224.851562 " fill-opacity="1" fill-rule="nonzero"/></g></g></g></g><g clip-path="url(#23152a2be3)"><g clip-path="url(#2d7d42bd51)"><g clip-path="url(#f91155b87c)"><g clip-path="url(#b622a3f5f8)"><path stroke-linecap="butt" transform="matrix(0.0849487, -0.745174, 0.745174, 0.0849486, 187.495627, 224.900772)" fill="none" stroke-linejoin="miter" d="M -0.00201212 0.000856296 L 0.00230152 15.02937 L 127.91935 15.030453 L 127.920211 0.00134887 L -0.00201212 0.000856296 " stroke="#000000" stroke-width="6" stroke-opacity="1" stroke-miterlimit="4"/></g></g></g></g></svg>