<svg xmlns="http://www.w3.org/2000/svg" xmlns:xlink="http://www.w3.org/1999/xlink" width="500" zoomAndPan="magnify" viewBox="0 0 375 374.999991" height="500" preserveAspectRatio="xMidYMid meet" version="1.0"><defs><g/><clipPath id="dc1d0f1e69"><path d="M 194 156 L 215 156 L 215 252 L 194 252 Z M 194 156 " clip-rule="nonzero"/></clipPath><clipPath id="bddb4537c9"><path d="M 194.609375 250.175781 L 205.3125 156.285156 L 215 157.390625 L 204.296875 251.28125 Z M 194.609375 250.175781 " clip-rule="nonzero"/></clipPath><clipPath id="9bc2d8a11e"><path d="M 194.773438 250.042969 L 205.441406 156.5 L 214.851562 157.570312 L 204.1875 251.117188 Z M 194.773438 250.042969 " clip-rule="nonzero"/></clipPath><clipPath id="24aad3281f"><path d="M 193.777344 250.835938 L 204.652344 155.453125 L 215.832031 156.730469 L 204.957031 252.109375 Z M 193.777344 250.835938 " clip-rule="nonzero"/></clipPath><clipPath id="88b496fcac"><path d="M 193 155 L 216 155 L 216 253 L 193 253 Z M 193 155 " clip-rule="nonzero"/></clipPath><clipPath id="02fc290319"><path d="M 193.777344 250.835938 L 204.652344 155.453125 L 215.832031 156.730469 L 204.957031 252.109375 Z M 193.777344 250.835938 " clip-rule="nonzero"/></clipPath><clipPath id="98eb89ec90"><path d="M 193.777344 250.835938 L 204.652344 155.464844 L 216.574219 156.824219 L 205.699219 252.195312 Z M 193.777344 250.835938 " clip-rule="nonzero"/></clipPath><clipPath id="45a8743411"><path d="M 193.777344 250.835938 L 204.644531 155.511719 L 215.847656 156.789062 L 204.980469 252.113281 Z M 193.777344 250.835938 " clip-rule="nonzero"/></clipPath></defs><g fill="#000000" fill-opacity="1"><g transform="translate(91.281275, 228.678091)"><g><path d="M 48.671875 0 L 38.078125 0 L 41.25 -25.75 L 16.59375 -25.75 L 13.421875 0 L 2.84375 0 L 10.0625 -58.640625 L 20.640625 -58.640625 L 17.484375 -33.21875 L 42.171875 -33.21875 L 45.34375 -58.640625 L 55.921875 -58.640625 Z M 48.671875 0 "/></g></g></g><g fill="#000000" fill-opacity="1"><g transform="translate(151.218689, 228.678091)"><g><path d="M 15.046875 11.515625 C 14.335938 12.890625 13.253906 13.578125 11.796875 13.578125 L 4.375 13.578125 L 13.625 -3.15625 L 3.125 -41.609375 L 11.515625 -41.609375 C 12.242188 -41.609375 12.789062 -41.425781 13.15625 -41.0625 C 13.519531 -40.695312 13.769531 -40.257812 13.90625 -39.75 L 19.015625 -18.171875 C 19.179688 -17.460938 19.3125 -16.769531 19.40625 -16.09375 C 19.5 -15.425781 19.570312 -14.738281 19.625 -14.03125 C 19.925781 -14.738281 20.226562 -15.4375 20.53125 -16.125 C 20.84375 -16.8125 21.164062 -17.503906 21.5 -18.203125 L 31.75 -39.78125 C 32.019531 -40.320312 32.410156 -40.757812 32.921875 -41.09375 C 33.441406 -41.4375 33.972656 -41.609375 34.515625 -41.609375 L 42.546875 -41.609375 Z M 15.046875 11.515625 "/></g></g></g><g fill="#000000" fill-opacity="1"><g transform="translate(195.016147, 228.678091)"><g/></g></g><g fill="#000000" fill-opacity="1"><g transform="translate(214.15758, 228.678091)"><g><path d="M 33.453125 -23.4375 C 33.703125 -22.738281 33.921875 -22.023438 34.109375 -21.296875 C 34.296875 -20.566406 34.484375 -19.820312 34.671875 -19.0625 C 34.992188 -19.820312 35.34375 -20.566406 35.71875 -21.296875 C 36.101562 -22.023438 36.515625 -22.738281 36.953125 -23.4375 L 57.296875 -56.9375 C 57.546875 -57.34375 57.796875 -57.660156 58.046875 -57.890625 C 58.304688 -58.117188 58.578125 -58.285156 58.859375 -58.390625 C 59.148438 -58.503906 59.46875 -58.570312 59.8125 -58.59375 C 60.164062 -58.625 60.570312 -58.640625 61.03125 -58.640625 L 69.03125 -58.640625 L 61.8125 0 L 52.5625 0 L 57.265625 -38.203125 C 57.347656 -38.898438 57.46875 -39.664062 57.625 -40.5 C 57.789062 -41.34375 57.96875 -42.195312 58.15625 -43.0625 L 38 -9.578125 C 37.539062 -8.816406 36.960938 -8.242188 36.265625 -7.859375 C 35.578125 -7.484375 34.832031 -7.296875 34.03125 -7.296875 L 32.5625 -7.296875 C 31.75 -7.296875 31.039062 -7.484375 30.4375 -7.859375 C 29.832031 -8.242188 29.394531 -8.816406 29.125 -9.578125 L 17.03125 -42.953125 C 17.007812 -42.109375 16.976562 -41.296875 16.9375 -40.515625 C 16.894531 -39.734375 16.832031 -39.015625 16.75 -38.359375 L 12.125 0 L 2.84375 0 L 10.0625 -58.640625 L 17.96875 -58.640625 C 18.425781 -58.640625 18.828125 -58.625 19.171875 -58.59375 C 19.523438 -58.570312 19.835938 -58.503906 20.109375 -58.390625 C 20.378906 -58.285156 20.609375 -58.117188 20.796875 -57.890625 C 20.992188 -57.660156 21.171875 -57.34375 21.328125 -56.9375 Z M 33.453125 -23.4375 "/></g></g></g><g clip-path="url(#dc1d0f1e69)"><g clip-path="url(#bddb4537c9)"><g clip-path="url(#9bc2d8a11e)"><g clip-path="url(#24aad3281f)"><path fill="#000000" d="M 193.785156 250.789062 L 204.640625 155.5625 L 215.839844 156.835938 L 204.984375 252.066406 Z M 193.785156 250.789062 " fill-opacity="1" fill-rule="nonzero"/><path fill="#000000" d="M 193.785156 250.789062 L 204.640625 155.5625 L 215.839844 156.835938 L 204.984375 252.066406 Z M 193.785156 250.789062 " fill-opacity="1" fill-rule="nonzero"/></g></g></g></g><g clip-path="url(#88b496fcac)"><g clip-path="url(#02fc290319)"><g clip-path="url(#98eb89ec90)"><g clip-path="url(#45a8743411)"><path stroke-linecap="butt" transform="matrix(0.0849487, -0.745174, 0.745174, 0.0849486, 193.779162, 250.83678)" fill="none" stroke-linejoin="miter" d="M 0.000841921 -0.00253625 L 0.000570662 15.031743 L 127.922794 15.032235 L 127.923065 -0.00204367 L 0.000841921 -0.00253625 " stroke="#000000" stroke-width="6" stroke-opacity="1" stroke-miterlimit="4"/></g></g></g></g></svg>